:SAMPLES-PER-SECOND 30
:FULLY-SPECIFIED
:DEGREES
298
root  61.3114 37.517 4.41859 -2.40237 86.6293 0.745239
RightUpLeg  -19.5035 -1.20744 -7.54342
RightLeg  50.4652 3.59482 4.34367
RightFoot  -9.67968 -0.185181 8.2325
RightToes  6.35927e-011 1.30204e-014 -6.03759e-014
Spine  30.095 -0.384253 2.4797
Spine1  -1.8945 1.3682 -6.3982
HEad  -29.699 1.81194 -4.20877
LeftShoulder1  -0.113093 -1.47188 12.2062
LeftArm  -52.2561 -52.6124 0.907141
LeftForeArm  -13.5876 -10.4948 3.59134
LeftHand  -0.676399 24.843 -2.42358
RightShoulder  -0.524973 3.51252 -18.3227
RightArm  -53.2401 56.4239 -0.343057
RightForeArm  -35.0633 14.6105 -0.0994692
RightHand  -1.03891 8.73424 -8.92065
LeftUpLeg  -21.2682 11.1539 2.44111
LeftLeg  17.0991 -6.06553 -2.88823
LeftFoot  10.5374 -0.735655 3.47162
LeftToes  -7.16024e-010 4.79583e-011 -5.98286e-011
299
root  60.868 37.3471 4.69745 9.06694 86.6188 13.2688
RightUpLeg  -16.442 0.857546 -8.9936
RightLeg  55.979 3.37831 4.95516
RightFoot  -10.5511 -0.129465 8.2867
RightToes  6.35927e-011 1.30204e-014 -6.03759e-014
Spine  28.3962 -0.194949 2.28323
Spine1  0.102257 1.49623 -6.82029
HEad  -28.6371 1.55491 -4.29202
LeftShoulder1  0.17468 -1.59254 5.69452
LeftArm  -44.1761 -56.2214 -3.41319
LeftForeArm  -13.4976 -1.32498 2.62713
LeftHand  0.315675 11.0957 7.0552
RightShoulder  -0.196366 3.77354 -12.8129
RightArm  -50.0224 53.4676 11.9547
RightForeArm  -17.8583 27.3304 7.22713
RightHand  -1.22436 6.15411 -12.6569
LeftUpLeg  -20.814 10.5315 2.34773
LeftLeg  16.9736 -5.65377 -2.74479
LeftFoot  11.2023 -0.642537 2.87897
LeftToes  -7.16024e-010 4.79583e-011 -5.98286e-011
300
root  60.4286 37.2013 4.99792 19.0619 86.4834 24.1687
RightUpLeg  -12.3911 2.63911 -10.0051
RightLeg  58.5846 3.05036 4.93301
RightFoot  -11.3698 -0.0748761 7.71168
RightToes  6.35927e-011 1.30204e-014 -6.03759e-014
Spine  26.8443 0.0680451 2.55153
Spine1  1.23625 1.7701 -7.18494
HEad  -27.0007 1.23157 -4.26799
LeftShoulder1  0.433528 -1.41984 -0.412742
LeftArm  -32.799 -53.855 -12.8281
LeftForeArm  -11.3538 0.164798 -0.509096
LeftHand  -0.0436866 5.21322 10.5216
RightShoulder  0.188432 3.87583 -6.77062
RightArm  -35.9845 50.2243 23.1291
RightForeArm  -7.79368 37.1453 8.88989
RightHand  -0.976214 2.01992 -15.2468
LeftUpLeg  -20.328 9.78131 2.34121
LeftLeg  16.466 -5.19156 -2.5026
LeftFoot  11.8247 -0.484481 2.0112
LeftToes  -7.16024e-010 4.79583e-011 -5.98286e-011
301
root  59.9789 37.0305 5.32442 25.0727 86.3214 30.9503
RightUpLeg  -7.77873 4.21765 -10.3479
RightLeg  58.7811 3.2019 5.23845
RightFoot  -10.9698 -0.0984682 6.95556
RightToes  6.35927e-011 1.30204e-014 -6.03759e-014
Spine  25.6109 0.389269 2.41778
Spine1  1.2843 1.783 -6.52341
HEad  -24.8593 1.63143 -4.42719
LeftShoulder1  0.646944 -1.17565 -6.09091
LeftArm  -23.4422 -46.4507 -22.776
LeftForeArm  -5.03761 -1.09707 -2.279
LeftHand  0.2754 12.0752 5.44138
RightShoulder  0.61647 3.71763 0.136309
RightArm  -24.5166 48.943 30.1179
RightForeArm  4.73416 39.3353 8.89057
RightHand  -0.777588 0.758224 -14.8462
LeftUpLeg  -20.1403 9.34819 2.4996
LeftLeg  16.1722 -4.88779 -2.22486
LeftFoot  12.4762 -0.243685 0.79356
LeftToes  -7.16024e-010 4.79583e-011 -5.98286e-011
302
root  59.4981 36.8054 5.67389 28.3096 86.0943 34.9449
RightUpLeg  -2.72839 5.55415 -10.2776
RightLeg  56.7829 4.48245 6.89508
RightFoot  -10.4358 -0.134349 7.99714
RightToes  6.35927e-011 1.30204e-014 -6.03759e-014
Spine  24.3013 0.584219 1.95153
Spine1  1.40221 1.57779 -5.59429
HEad  -22.8653 2.64772 -4.47463
LeftShoulder1  0.799656 -0.848521 -11.1646
LeftArm  -15.608 -36.3008 -28.5586
LeftForeArm  -0.658739 -0.765581 -4.59493
LeftHand  0.172039 11.7297 4.61675
RightShoulder  0.949822 3.0109 7.00278
RightArm  -7.06261 45.3241 36.857
RightForeArm  -3.88843 37.5646 8.85572
RightHand  -1.78961 9.23663 -13.8204
LeftUpLeg  -20.3163 9.56941 2.70788
LeftLeg  16.4744 -5.08674 -2.10396
LeftFoot  13.1064 -0.0344802 -0.214095
LeftToes  -7.16024e-010 4.79583e-011 -5.98286e-011
303
root  58.9723 36.5589 6.03678 30.3546 85.7511 37.7637
RightUpLeg  2.7096 6.45853 -10.1224
RightLeg  52.4035 6.43643 8.5299
RightFoot  -12.8528 0.0692551 10.788
RightToes  6.35927e-011 1.30204e-014 -6.03759e-014
Spine  22.6608 0.493318 1.9731
Spine1  2.32053 1.4612 -5.56887
HEad  -21.4397 3.65142 -4.1746
LeftShoulder1  0.885833 -0.44906 -15.5987
LeftArm  -9.88291 -24.6009 -31.3823
LeftForeArm  2.34337 -0.286839 -6.66181
LeftHand  0.0610625 6.3362 8.55823
RightShoulder  1.04358 1.77667 12.8203
RightArm  2.96582 37.3437 41.823
RightForeArm  4.84677 39.0845 8.80008
RightHand  -0.376732 4.29528 -5.22867
LeftUpLeg  -20.5851 10.0796 2.87389
LeftLeg  16.8783 -5.69638 -2.11566
LeftFoot  13.7173 0.0378266 -0.552577
LeftToes  -7.16024e-010 4.79583e-011 -5.98286e-011
304
root  58.3468 36.2972 6.42524 28.9881 85.1911 37.0998
RightUpLeg  7.70532 7.05888 -9.71326
RightLeg  46.367 7.95639 8.56134
RightFoot  -19.5111 0.742337 12.3798
RightToes  6.35927e-011 1.30204e-014 -6.03759e-014
Spine  21.5086 0.162221 3.35343
Spine1  2.84073 1.79843 -7.40485
HEad  -20.2703 4.19242 -3.41725
LeftShoulder1  0.903231 0.0379004 -19.4415
LeftArm  -7.38922 -11.3838 -32.3734
LeftForeArm  8.74184 -2.13278 -7.39128
LeftHand  0.0305198 6.468 7.69529
RightShoulder  0.864656 0.0636997 17.7854
RightArm  13.0333 29.5636 45.2759
RightForeArm  2.45928 34.4818 7.55831
RightHand  -0.477321 4.1036 -5.91541
LeftUpLeg  -20.8167 10.1732 3.35253
LeftLeg  16.7802 -5.62248 -1.88978
LeftFoot  14.7582 0.153566 -1.0484
LeftToes  -7.16024e-010 4.79583e-011 -5.98286e-011
